<svg width="565" height="789" viewBox="0 0 565 789" fill="none" xmlns="http://www.w3.org/2000/svg">
<path d="M42 645L194 775L346 645" stroke="white" stroke-width="20"/>
<line x1="46" y1="517" x2="46" y2="653" stroke="white" stroke-width="20"/>
<line x1="343" y1="581" x2="343" y2="652" stroke="white" stroke-width="20"/>
<path d="M326.055 537.714L386 572.385V546.37V394.336H170.652V536.37H321.049H323.732L326.055 537.714Z" stroke="white" stroke-width="20"/>
<path d="M245.348 378.112V326H10V467.903V505.868L84.9514 467.903" stroke="#FFDA0C" stroke-width="20"/>
<path d="M78.2059 469.602H153.157" stroke="#FFDA0C" stroke-width="20"/>
<path d="M405.662 342.298L404.5 346.186L407.119 349.285L424.089 369.37L307.801 366.355L413.188 317.104L405.662 342.298Z" stroke="white" stroke-width="15"/>
<path d="M430.141 340.838L440.159 308.236L469.705 318.559L494.842 327.343L452.356 366.717L430.141 340.838Z" stroke="#38B000" stroke-width="15"/>
<path d="M360.677 266.464L361.973 270.308L365.901 271.327L391.353 277.927L294.666 342.61L352.274 241.548L360.677 266.464Z" stroke="white" stroke-width="15"/>
<path d="M379.82 251.137L369.175 218.735L399.26 210.104L424.855 202.762L412.901 259.44L379.82 251.137Z" stroke="#00A7D1" stroke-width="15"/>
<path d="M282.908 231.002L286.117 233.485L289.951 232.158L314.799 223.555L270.126 330.963L262.112 214.912L282.908 231.002Z" stroke="white" stroke-width="15"/>
<path d="M290.357 207.638L263.547 186.557L283.814 162.707L301.057 142.417L322.498 196.228L290.357 207.638Z" stroke="#E90E12" stroke-width="15"/>
<path d="M344 144L193 14L42 144" stroke="white" stroke-width="20"/>
<line x1="46" y1="138" x2="46" y2="303" stroke="white" stroke-width="20"/>
</svg>
